<svg xmlns="http://www.w3.org/2000/svg" xmlns:xlink="http://www.w3.org/1999/xlink" width="21" height="21" version="1.1" viewBox="0 0 21 21"><title>logo/color</title><desc>Created with Sketch.</desc><defs><filter id="filter-1" width="113.3%" height="163.2%" x="-6.6%" y="-31.6%" filterUnits="objectBoundingBox"><feOffset dx="0" dy="2" in="SourceAlpha" result="shadowOffsetOuter1"/><feGaussianBlur in="shadowOffsetOuter1" result="shadowBlurOuter1" stdDeviation="2"/><feColorMatrix in="shadowBlurOuter1" result="shadowMatrixOuter1" type="matrix" values="0 0 0 0 0.145098039 0 0 0 0 0.164705882 0 0 0 0 0.180392157 0 0 0 0.1 0"/><feMerge><feMergeNode in="shadowMatrixOuter1"/><feMergeNode in="SourceGraphic"/></feMerge></filter><path id="path-2" d="M1.49019998,1.68060837 L10.1375576,1.68060837 C10.3264562,2.04780011 10.7112496,2.30200978 11.152013,2.30200978 C11.7816749,2.30200978 12.2924007,1.78652906 12.2924007,1.15100489 C12.2924007,0.515480717 11.7816749,2.48689958e-14 11.1450167,2.48689958e-14 C10.6692721,2.48689958e-14 10.2564937,0.296577947 10.0885839,0.720260728 L1.49019998,0.720260728 C0.657646937,0.720260728 -1.24344979e-14,1.36284628 -1.24344979e-14,2.17490494 L-1.24344979e-14,11.4676806 C-1.24344979e-14,12.293862 0.685631913,13 1.49019998,13 L10.6902609,13 C11.5018252,13 12.1594721,12.3150462 12.1594721,11.4676806 L12.1594721,5.95980445 C12.1594721,5.13362303 11.5018252,4.45573058 10.6902609,4.45573058 L5.23319052,4.45573058 C4.40063748,4.45573058 3.69401684,5.14774579 3.69401684,5.95980445 L3.69401684,7.68984248 C3.69401684,8.49483976 4.386645,9.14448669 5.23319052,9.14448669 L7.13616889,9.14448669 C7.30407875,9.56816947 7.71685715,9.86474742 8.19260174,9.86474742 C8.8222637,9.86474742 9.33298951,9.3492667 9.33298951,8.71374253 C9.33298951,8.07821836 8.8222637,7.56273764 8.19260174,7.56273764 C7.75183837,7.56273764 7.36704495,7.81694731 7.17814636,8.18413905 L5.23319052,8.18413905 C4.95334076,8.18413905 4.65250227,7.9934818 4.65250227,7.68984248 L4.65250227,5.95274307 C4.65250227,5.67028789 4.93235203,5.40901684 5.23319052,5.40901684 L10.6902609,5.40901684 C10.9771069,5.40901684 11.2079829,5.64910375 11.2079829,5.95274307 L11.2079829,11.4606192 C11.2079829,11.7642586 10.9701106,12.0255296 10.6902609,12.0255296 L1.49019998,12.0255296 C1.20335397,12.0255296 0.951489186,11.7571972 0.951489186,11.4606192 L0.951489186,2.17490494 C0.951489186,1.89951114 1.18236524,1.68060837 1.49019998,1.68060837 L1.49019998,1.68060837 Z M11.1450167,0.600217273 C11.4458552,0.600217273 11.6907237,0.847365562 11.6907237,1.15100489 C11.6907237,1.45464422 11.4458552,1.7017925 11.1450167,1.7017925 C10.8441782,1.7017925 10.5993097,1.45464422 10.5993097,1.15100489 C10.5993097,0.847365562 10.8441782,0.600217273 11.1450167,0.600217273 L11.1450167,0.600217273 Z M8.19959798,8.16295492 C8.50043648,8.16295492 8.74530502,8.4101032 8.74530502,8.71374253 C8.74530502,9.01738186 8.50043648,9.26453015 8.19959798,9.26453015 C7.89875949,9.26453015 7.65389095,9.01738186 7.65389095,8.71374253 C7.65389095,8.40304183 7.89875949,8.16295492 8.19959798,8.16295492 L8.19959798,8.16295492 Z"/><linearGradient id="linearGradient-4" x1="49.858%" x2="49.858%" y1="98.597%" y2="2.856%"><stop offset="0%" stop-color="#0A968E"/><stop offset="100%" stop-color="#3EB8BC"/></linearGradient><linearGradient id="linearGradient-5" x1=".033%" x2="100.025%" y1="49.811%" y2="49.811%"><stop offset="0%" stop-color="#0A968E"/><stop offset="100%" stop-color="#EB5B28"/></linearGradient><linearGradient id="linearGradient-6" x1="50.052%" x2="50.052%" y1=".453%" y2="99.097%"><stop offset="0%" stop-color="#C22C2E"/><stop offset="100%" stop-color="#EB5B28"/></linearGradient><linearGradient id="linearGradient-7" x1="98.567%" x2="1.853%" y1="49.853%" y2="49.853%"><stop offset="0%" stop-color="#C22C2E"/><stop offset="100%" stop-color="#CA4C30"/></linearGradient><linearGradient id="linearGradient-8" x1="50.111%" x2="50.111%" y1="2.453%" y2="96.878%"><stop offset="0%" stop-color="#CA4C30"/><stop offset="100%" stop-color="#E94E1B"/></linearGradient><linearGradient id="linearGradient-9" x1="99.996%" x2="1.705%" y1="50.048%" y2="50.048%"><stop offset="0%" stop-color="#0D77BA"/><stop offset="100%" stop-color="#3EB8BC"/></linearGradient><linearGradient id="linearGradient-10" x1=".015%" x2="100.074%" y1="50.01%" y2="50.01%"><stop offset="0%" stop-color="#E94E1B"/><stop offset="100%" stop-color="#F8AE3B"/></linearGradient></defs><g id="Memberships" fill="none" fill-rule="evenodd" stroke="none" stroke-width="1"><g id="Profile---Membership---Subscribed" transform="translate(-31.000000, -952.000000)"><g id="power-by-footer" filter="url(#filter-1)" transform="translate(20.000000, 942.000000)"><g id="logo/color" transform="translate(15.000000, 12.000000)"><mask id="mask-3" fill="#fff"><use xlink:href="#path-2"/></mask><use id="mark" fill="#252A2E" fill-rule="evenodd" xlink:href="#path-2"/><g id="gradients" fill-rule="evenodd" stroke-width="1" mask="url(#mask-3)"><g transform="translate(-0.499200, -0.520000)"><polygon id="Rectangle-path" fill="#3EB8BC" points=".175 .833 2.015 .833 2.015 2.812 .175 2.812"/><polygon id="Rectangle-path" fill="#0A968E" points=".175 12.077 2.015 12.077 2.015 14.056 .175 14.056"/><polygon id="Rectangle-path" fill="#EB5B28" points="11.287 12.077 13.127 12.077 13.127 14.056 11.287 14.056"/><polygon id="Rectangle-path" fill="#C22C2E" points="11.287 4.626 13.127 4.626 13.127 6.605 11.287 6.605"/><polygon id="Rectangle-path" fill="#E94E1B" points="4.018 8.27 5.858 8.27 5.858 10.248 4.018 10.248"/><polygon id="Rectangle-path" fill="#CA4C30" points="4.018 4.626 5.858 4.626 5.858 6.605 4.018 6.605"/><polygon id="Rectangle-path" fill="url(#linearGradient-4)" points=".175 2.776 1.98 2.776 1.98 12.12 .175 12.12"/><polygon id="Rectangle-path" fill="url(#linearGradient-5)" points="1.973 12.12 11.322 12.12 11.322 14.063 1.973 14.063"/><polygon id="Rectangle-path" fill="url(#linearGradient-6)" points="11.322 6.562 13.127 6.562 13.127 12.113 11.322 12.113"/><polygon id="Rectangle-path" fill="url(#linearGradient-7)" points="5.823 4.626 11.322 4.626 11.322 6.569 5.823 6.569"/><polygon id="Rectangle-path" fill="url(#linearGradient-8)" points="4.018 6.562 5.823 6.562 5.823 8.305 4.018 8.305"/><polygon id="Shape" fill="url(#linearGradient-9)" points="10.413 .427 10.413 .833 1.973 .833 1.973 2.776 10.413 2.776 10.413 3.174 13.127 3.174 13.127 .427"/><polygon id="Shape" fill="url(#linearGradient-10)" points="7.472 7.978 7.472 8.313 5.823 8.313 5.823 10.248 7.472 10.248 7.472 10.704 10.173 10.704 10.173 7.978"/></g></g></g></g></g></g></svg>