<?xml version="1.0" standalone="no"?>
<!DOCTYPE svg PUBLIC "-//W3C//DTD SVG 20010904//EN"
 "http://www.w3.org/TR/2001/REC-SVG-20010904/DTD/svg10.dtd">
<svg version="1.0" xmlns="http://www.w3.org/2000/svg"
 width="32.000000pt" height="32.000000pt" viewBox="0 0 32.000000 32.000000"
 preserveAspectRatio="xMidYMid meet">

<g transform="translate(0.000000,32.000000) scale(0.100000,-0.100000)"
fill="#000000" stroke="none">
<path d="M214 285 c53 -49 58 -119 11 -169 -22 -24 -22 -26 -5 -26 34 0 71 42
77 87 7 50 -11 84 -60 113 -44 27 -55 25 -23 -5z"/>
<path d="M54 268 c-18 -18 -35 -44 -39 -58 l-7 -25 17 23 c43 58 133 67 185
17 l27 -26 -4 25 c-8 40 -47 68 -100 73 -44 4 -51 2 -79 -29z"/>
<path d="M94 233 c-36 -7 -66 -48 -72 -98 -4 -39 -1 -50 19 -71 21 -23 69 -54
83 -54 2 0 -11 15 -30 34 -29 29 -34 41 -34 81 0 40 5 52 34 81 19 19 31 33
28 33 -4 -1 -17 -4 -28 -6z"/>
<path d="M130 185 c-15 -18 -10 -45 13 -59 34 -22 73 27 47 59 -16 19 -44 19
-60 0z"/>
<path d="M85 105 c16 -73 111 -110 168 -65 28 22 62 78 54 87 -3 2 -10 -5 -16
-16 -14 -26 -61 -51 -96 -51 -34 0 -79 24 -100 52 l-17 23 7 -30z"/>
</g>
</svg>
