<svg xmlns="http://www.w3.org/2000/svg" viewBox="0 0 32 32">
    <path id="behance" d="M11.12112,8.0625a9.0096,9.0096,0,0,1,1.90809.18511,4.1571,4.1571,0,0,1,1.4765.60322,2.83119,2.83119,0,0,1,.95489,1.11526,3.94,3.94,0,0,1,.33424,1.7162,3.19956,3.19956,0,0,1-.50136,1.84227,3.63247,3.63247,0,0,1-1.49113,1.20585A3.493,3.493,0,0,1,15.81,16.09212a4.0642,4.0642,0,0,1,.66172,2.34755,4.04187,4.04187,0,0,1-.426,1.91653,3.73136,3.73136,0,0,1-1.15689,1.32458,5.09153,5.09153,0,0,1-1.66332.75851,7.44346,7.44346,0,0,1-1.91147.24533H4.227V8.0625h6.89411m-.41583,5.9077a2.33,2.33,0,0,0,1.4163-.4102,1.53511,1.53511,0,0,0,.54975-1.32965,1.74728,1.74728,0,0,0-.17894-.84009,1.33782,1.33782,0,0,0-.49629-.50812,2.00658,2.00658,0,0,0-.709-.25658,4.28937,4.28937,0,0,0-.82828-.07259H7.44674V13.9702Zm.17781,6.22452a4.16006,4.16006,0,0,0,.90256-.09174,2.14161,2.14161,0,0,0,.75851-.31,1.55307,1.55307,0,0,0,.5233-.5835,2.02532,2.02532,0,0,0,.193-.94814,1.9106,1.9106,0,0,0-.63416-1.61381,2.72029,2.72029,0,0,0-1.67963-.48H7.44674v4.0272Zm10.17742-.0484a2.58967,2.58967,0,0,0,1.88164.63922,2.596,2.596,0,0,0,1.51815-.444,1.86992,1.86992,0,0,0,.77707-.93857h2.56138a4.85679,4.85679,0,0,1-1.8884,2.73188,5.49758,5.49758,0,0,1-3.06554.82434,6.09544,6.09544,0,0,1-2.25865-.40121,4.80362,4.80362,0,0,1-1.71-1.13831,5.21215,5.21215,0,0,1-1.07531-1.76462,6.465,6.465,0,0,1-.37982-2.2564,6.21463,6.21463,0,0,1,.39108-2.21531,5.1916,5.1916,0,0,1,1.10906-1.77418,5.25885,5.25885,0,0,1,1.71509-1.18052,5.51134,5.51134,0,0,1,2.20857-.431,5.0145,5.0145,0,0,1,2.35261.52387,4.69206,4.69206,0,0,1,1.65094,1.40335,5.74307,5.74307,0,0,1,.9307,2.00938,7.50736,7.50736,0,0,1,.20257,2.35655H20.3414a2.96745,2.96745,0,0,0,.71912,2.05552M24.40235,14.583a2.177,2.177,0,0,0-1.64475-.58914,2.50375,2.50375,0,0,0-1.15746.23746,2.32743,2.32743,0,0,0-.73657.583,2.09661,2.09661,0,0,0-.38994.74613,3.31629,3.31629,0,0,0-.13223.69775h4.73112A2.83072,2.83072,0,0,0,24.40235,14.583Zm-4.65628-4.097h5.9274V9.04326h-5.9274Z" fill="#262626"/>
</svg>
