<svg xmlns="http://www.w3.org/2000/svg" viewBox="0 0 32 32">
    <g id="snapchat">
      <path id="ghost" d="M16.158,27.73527c-.06447,0-.12778-.00184-.19108-.00485h-.00014c-.04035.00314-.08256.00485-.12476.00485a5.47038,5.47038,0,0,1-3.35162-1.32215,4.88889,4.88889,0,0,0-1.93983-.98964,6.26333,6.26333,0,0,0-1.0186-.086,6.96639,6.96639,0,0,0-1.41153.15937,3.08939,3.08939,0,0,1-.52608.076.331.331,0,0,1-.36554-.2612c-.05857-.19947-.10091-.39266-.14166-.57955-.105-.481-.17956-.7768-.38114-.80773-2.34952-.36291-3.022-.85779-3.17192-1.2089a.45246.45246,0,0,1-.03618-.15032.26447.26447,0,0,1,.22124-.27576c3.61177-.59476,5.23141-4.28621,5.29865-4.443l.00577-.01284a1.3759,1.3759,0,0,0,.1291-1.15557c-.24785-.58413-1.05623-.84088-1.59135-1.01061-.13092-.04141-.255-.0806-.35294-.11926-1.06776-.42214-1.15662-.85544-1.11468-1.07627a1.00856,1.00856,0,0,1,.98113-.63852.68754.68754,0,0,1,.29226.05831,3.11107,3.11107,0,0,0,1.28676.33906,1.06071,1.06071,0,0,0,.76894-.24534c-.01312-.24443-.02937-.49975-.046-.76319-.10758-1.70759-.24088-3.82933.29936-5.04046a6.53376,6.53376,0,0,1,6.06641-3.91243c.02595,0,.44443-.00445.44443-.00445l.06-.00027a6.54507,6.54507,0,0,1,6.07717,3.91492c.54036,1.21179.40667,3.33538.29894,5.04165l-.00446.07418c-.01493.23762-.02935.46855-.04142.68964a1.02863,1.02863,0,0,0,.70093.24377h.00052a3.22,3.22,0,0,0,1.2127-.33708.91479.91479,0,0,1,.3768-.07431,1.151,1.151,0,0,1,.43342.08269l.00774.00315a.7966.7966,0,0,1,.60549.6485c.00472.25019-.18624.62634-1.12319.99645-.09711.03814-.22122.07758-.35268.11926-.53565.17-1.34377.42648-1.59147,1.01048a1.37554,1.37554,0,0,0,.129,1.15543l.00591.01311c.06722.15662,1.68542,3.847,5.29879,4.44245a.265.265,0,0,1,.22135.276.44386.44386,0,0,1-.03695.15113c-.149.3486-.821.84283-3.17129,1.206-.192.0295-.26644.2797-.381.80433-.04167.191-.08388.37851-.14194.57575a.31387.31387,0,0,1-.33617.25125H24.4059a2.94265,2.94265,0,0,1-.52595-.06632,7.01588,7.01588,0,0,0-1.41165-.14954,6.27073,6.27073,0,0,0-1.01913.086,4.88226,4.88226,0,0,0-1.93747.9882A5.47251,5.47251,0,0,1,16.158,27.73527Z" fill="#fff"/>
      <path id="ghost-border" d="M16.247,4.52937a6.27765,6.27765,0,0,1,5.83549,3.758c.51388,1.15216.38243,3.23984.27667,4.91714-.01679.26593-.033.52371-.04627.77026l-.00577.10575.0709.07878a1.25737,1.25737,0,0,0,.88978.33406l.01.00028.0097-.00028a3.47062,3.47062,0,0,0,1.31638-.362.63992.63992,0,0,1,.26434-.04928.88631.88631,0,0,1,.33394.06328l.01494.00605c.25191.0882.43015.25491.43317.40537.00143.08558-.06252.39213-.95583.745-.08728.0346-.20236.071-.33552.1131-.58126.1848-1.45949.46317-1.75516,1.15936a1.62511,1.62511,0,0,0,.13525,1.37628c.10563.24625,1.7646,3.98438,5.49905,4.59971a.17143.17143,0,0,1-.01533.05975c-.06344.14916-.4658.66383-2.9688,1.05019-.39186.06043-.48793.49923-.59934,1.00982-.03971.18258-.081.36672-.13721.55754-.01691.05766-.02018.06108-.08219.06108H24.4059a2.77169,2.77169,0,0,1-.47522-.06133,7.32762,7.32762,0,0,0-1.46238-.1544,6.51844,6.51844,0,0,0-1.06225.08952,5.08152,5.08152,0,0,0-2.04914,1.03446A5.25485,5.25485,0,0,1,16.158,27.47066c-.06067,0-.12044-.002-.18019-.00485L15.962,27.465l-.01586.00146c-.03433.00287-.0688.00419-.10419.00419a5.25661,5.25661,0,0,1-3.19893-1.27352,5.07693,5.07693,0,0,0-2.04888-1.03473,6.51943,6.51943,0,0,0-1.06224-.08952,7.20956,7.20956,0,0,0-1.46251.1641,2.96826,2.96826,0,0,1-.4751.07115c-.09056,0-.0924-.00523-.11154-.07063-.05609-.191-.09724-.38008-.13709-.56239-.11152-.51061-.208-.952-.59934-1.01243-2.50326-.38651-2.90535-.9025-2.96892-1.05125a.17294.17294,0,0,1-.01519-.0608c3.73419-.61521,5.39315-4.35293,5.49878-4.59986a1.62427,1.62427,0,0,0,.13539-1.376c-.29542-.69644-1.17378-.97508-1.75517-1.15988-.13315-.04194-.24823-.0785-.33552-.1131-.75477-.298-.98662-.5983-.9519-.78034.04-.20984.40367-.4232.721-.4232a.43216.43216,0,0,1,.18007.03317,3.37257,3.37257,0,0,0,1.39895.36407,1.29111,1.29111,0,0,0,.9688-.3363l.07038-.07864-.00576-.10536c-.01324-.24614-.02937-.5038-.04627-.7696-.10563-1.67731-.237-3.76354.27692-4.916A6.2703,6.2703,0,0,1,15.74252,4.534c.024,0,.44691-.0042.44691-.0042l.05754-.00038M16.247,4h-.001l-.06239.00041h0s-.40929.00405-.4418.00405A6.79451,6.79451,0,0,0,9.43417,8.074c-.56645,1.27036-.43067,3.428-.32176,5.16182.01285.20445.02648.41665.03814.62176a1.01779,1.01779,0,0,1-.49672.10826,2.85381,2.85381,0,0,1-1.17431-.314.94757.94757,0,0,0-.40471-.083,1.26713,1.26713,0,0,0-1.24116.85362c-.07.36788.09463.90457,1.27733,1.37168.10667.0422.235.08283.37052.12568.48858.15518,1.22711.38952,1.42751.86159a1.13356,1.13356,0,0,1-.12281.93526l-.0118.02569c-.065.15125-1.628,3.7144-5.09826,4.28569a.53.53,0,0,0-.44273.552.71224.71224,0,0,0,.05649.23787c.26042.6089,1.35923,1.055,3.35961,1.36552a2.48674,2.48674,0,0,1,.1789.60447c.04181.192.08493.39.1464.59893a.5919.5919,0,0,0,.61952.45085,3.22057,3.22057,0,0,0,.57667-.08112,6.74227,6.74227,0,0,1,1.36094-.15427,5.99384,5.99384,0,0,1,.97588.08232,4.62881,4.62881,0,0,1,1.82895.94415A5.76256,5.76256,0,0,0,15.842,28c.043,0,.08624-.0013.129-.00445.05085.00222.11677.00445.187.00445a5.761,5.761,0,0,0,3.50484-1.37089,4.63074,4.63074,0,0,1,1.83-.94442,5.983,5.983,0,0,1,.97549-.08232,6.78476,6.78476,0,0,1,1.36094.14445,3.19592,3.19592,0,0,0,.57666.07117l.01481.00025h.01441a.57558.57558,0,0,0,.59044-.44233c.06028-.20459.10353-.39751.14626-.59279a2.46591,2.46591,0,0,1,.17824-.602c2.00091-.31062,3.09947-.75609,3.35936-1.36238a.70425.70425,0,0,0,.05714-.23919.52919.52919,0,0,0-.44246-.55177c-3.47181-.5722-5.03353-4.13457-5.0984-4.28568l-.01193-.0257a1.13271,1.13271,0,0,1-.12267-.935c.20026-.47207.93854-.70641,1.42712-.86132.13669-.04339.26514-.08428.37078-.12595.86552-.34181,1.29972-.7616,1.29055-1.24771a1.03585,1.03585,0,0,0-.77746-.89121l-.00143-.00052a1.42049,1.42049,0,0,0-.53251-.102,1.1776,1.1776,0,0,0-.48886.09908,2.97969,2.97969,0,0,1-1.10064.31206.97694.97694,0,0,1-.42884-.10668c.01-.17589.02124-.357.03316-.54626l.00445-.07354c.10946-1.735.24536-3.89446-.32162-5.16576A6.80551,6.80551,0,0,0,16.247,4Z" fill="#262626"/>
	  </g>
</svg>
