<svg xmlns="http://www.w3.org/2000/svg" viewBox="0 0 32 32">
    <path id="soundcloud" d="M1.2193,17.85282,1,19.51867l.2193,1.63786a.12424.12424,0,0,0,.12059.11754.12585.12585,0,0,0,.11957-.117l.26-1.63837-.26-1.66636a.12013.12013,0,0,0-.24016.00051M2.32393,16.825l-.29511,2.69365.29511,2.63513a.12472.12472,0,0,0,.24931.00051l.33531-2.63564L2.57375,16.825a.125.125,0,0,0-.24982,0m3.48789-.35159-.24931,3.04676.24931,3.20348a.20151.20151,0,0,0,.403.00051l.28341-3.204L6.2148,16.47191a.20153.20153,0,0,0-.403.00152m-2.33493-.15111-.28035,3.19686L3.47689,22.599a.15039.15039,0,0,0,.30071.00051l.318-3.08034-.3175-3.19686a.1564.1564,0,0,0-.15061-.14705.1546.1546,0,0,0-.15061.14705m1.16263-.0865-.26458,3.28437.26458,3.177a.17609.17609,0,0,0,.3521,0l.3002-3.177-.3002-3.28539a.17608.17608,0,0,0-.3521.001m2.35427-1.67144-.23456,4.95734.23456,3.203a.22721.22721,0,0,0,.45437-.00051v.001l.2656-3.20347-.2656-4.95734a.2272.2272,0,0,0-.45437,0m1.19164-1.13313-.2193,6.09047.2193,3.18363a.25289.25289,0,0,0,.50575-.001l.2478-3.18261-.2478-6.09047a.25289.25289,0,0,0-.50575,0m4.8627-.31139-.15875,6.4039.15875,3.08186a.35516.35516,0,0,0,.7103-.002v.00254l.17809-3.08186-.17809-6.40492a.35515.35515,0,0,0-.7103.00051M9.38673,12.924l-.20454,6.59877.20454,3.15056a.27834.27834,0,0,0,.55664-.001l.23049-3.14954-.23049-6.59928a.27833.27833,0,0,0-.55664.00051m2.4311-.04732-.17351,6.64711.174,3.1012a.32946.32946,0,0,0,.65891-.00153v.002l.19538-3.10171-.19538-6.64711a.32971.32971,0,0,0-.65942,0m-1.22064-.17452-.18877,6.82061.18928,3.13173a.30378.30378,0,0,0,.60752-.001v-.00051l.21268-3.12969-.21268-6.82112a.304.304,0,0,0-.608,0m3.69092-.79883-.143,7.61893c0,.00458.143,3.06355.143,3.06355a.38085.38085,0,0,0,.76168-.00153v0l.16028-3.059-.16028-7.62249a.38085.38085,0,0,0-.76168.00051m1.23437-.68995-.16689,8.31244.16689,3.01674a.4063.4063,0,0,0,.81257-.003v.003l.18114-3.01674-.18114-8.31346a.40629.40629,0,0,0-.81257.001m1.51575-.82886c-.27832.10736-.35261.21829-.35515.43351V22.52981a.44684.44684,0,0,0,.3984.436c.00966.00051,10.163.0056,10.22862.0056a3.69015,3.69015,0,1,0-1.42721-7.09435A6.51136,6.51136,0,0,0,19.3986,9.94285a6.58364,6.58364,0,0,0-2.36037.44164" fill="#262626"/>
</svg>
